<svg width="15" height="15" viewBox="0 0 15 15" fill="none" xmlns="http://www.w3.org/2000/svg">
<path d="M14.8156 13.909L10.578 9.67772C11.4066 8.65629 11.9054 7.35774 11.9054 5.94393C11.9054 2.66646 9.23499 0 5.95268 0C2.67037 0 0 2.66646 0 5.94393C0 9.22139 2.6704 11.8879 5.95271 11.8879C7.36861 11.8879 8.66908 11.3898 9.69202 10.5625L13.9474 14.8116C14.0776 14.9234 14.478 15.1729 14.8398 14.8116C15.1533 14.4986 14.9298 14.023 14.8156 13.909ZM5.95271 10.6365C3.36126 10.6365 1.25321 8.53156 1.25321 5.94393C1.25321 3.3563 3.36126 1.25136 5.95271 1.25136C8.54416 1.25136 10.6522 3.3563 10.6522 5.94393C10.6522 8.53156 8.54416 10.6365 5.95271 10.6365Z" fill="#0A0B0D"/>
</svg>
