<svg width="30" height="31" viewBox="0 0 30 31" fill="none" xmlns="http://www.w3.org/2000/svg">
<path d="M27.4331 11.8667C27.2907 11.7345 27.0945 11.6721 26.8998 11.6944H20.7339V9.18397C20.7339 6.50082 18.4401 4.3373 15.6251 4.3373C12.8101 4.3373 10.5162 6.50082 10.5162 9.18397V11.6944H4.34262L4.33581 11.6944C4.25277 11.6944 4.1528 11.6943 4.06191 11.7148C3.96843 11.7359 3.87271 11.7812 3.8055 11.8775C3.66458 12.0129 3.5982 12.2062 3.63131 12.3983L3.63129 12.3983L3.63177 12.4008L5.82965 23.7834L5.82966 23.7834C6.14899 25.4348 7.65126 26.6352 9.41041 26.6626V26.6626H9.41239H21.8376V26.6627L21.8406 26.6626C23.6043 26.6215 25.103 25.4119 25.4204 23.7557L25.4204 23.7557L25.2956 23.7316L25.4204 23.7555L27.6183 12.4008L27.6183 12.4008L27.6187 12.3983C27.6527 12.2011 27.5818 12.0025 27.4331 11.8667ZM27.4331 11.8667C27.4332 11.8669 27.4334 11.8671 27.4336 11.8672L27.347 11.9602L27.4325 11.8663C27.4327 11.8664 27.4329 11.8666 27.4331 11.8667ZM23.9987 23.5684L23.9985 23.5693C23.8132 24.5571 22.9089 25.288 21.8371 25.298H9.41292C8.34112 25.288 7.43679 24.5571 7.25149 23.5693L7.25132 23.5684L5.20021 13.059H26.0498L23.9987 23.5684ZM11.9425 9.18397C11.9425 7.26728 13.5846 5.70192 15.625 5.70192C17.6654 5.70192 19.3076 7.26728 19.3076 9.18397V11.6944H11.9425V9.18397Z" fill="white" stroke="white" stroke-width="0.254121"/>
<path d="M20.0207 18.4727C20.408 18.4727 20.7338 18.1736 20.7338 17.7903V16.1246C20.7338 15.7414 20.408 15.4423 20.0207 15.4423C19.6334 15.4423 19.3075 15.7414 19.3075 16.1246V17.7903C19.3075 17.7903 19.3075 17.7903 19.3075 17.7903C19.3075 18.1736 19.6334 18.4727 20.0207 18.4727Z" fill="white" stroke="white" stroke-width="0.254121"/>
<path d="M11.2297 18.4727C11.617 18.4727 11.9428 18.1736 11.9428 17.7903V16.1246C11.9428 15.7414 11.617 15.4423 11.2297 15.4423C10.8423 15.4423 10.5165 15.7414 10.5165 16.1246V17.7903C10.5165 18.1736 10.8423 18.4727 11.2297 18.4727Z" fill="white" stroke="white" stroke-width="0.254121"/>
</svg>
