<svg width="20" height="20" viewBox="0 0 20 20" fill="none" xmlns="http://www.w3.org/2000/svg">
<path d="M10 20C15.5228 20 20 15.5228 20 10C20 4.47715 15.5228 0 10 0C4.47715 0 0 4.47715 0 10C0 15.5228 4.47715 20 10 20Z" fill="white"/>
<path d="M9.87319 13.6403V9.5184C9.87319 8.95039 10.0504 8.4814 10.4021 8.11142C10.7565 7.74404 11.2072 7.55904 11.757 7.55904H12.5517C12.8044 7.55904 13.0102 7.35321 13.0102 7.10047V6.83992C13.0102 6.58718 12.8044 6.38135 12.5517 6.38135H11.7283C10.7773 6.38135 10.0243 6.64972 9.47715 7.18385C8.92739 7.71798 8.65381 8.45274 8.65381 9.38552V13.7055C8.65381 13.966 8.86746 14.1823 9.13062 14.1823H9.40159C9.66215 14.1823 9.8758 13.9686 9.8784 13.7081V13.6872V13.6429L9.87319 13.6403Z" fill="#161515"/>
<path d="M10.0005 3.38489C13.6977 3.38489 16.7071 6.39427 16.7071 10.0915H18.0307C18.0307 5.66472 14.4299 2.06128 10.0005 2.06128V3.38489Z" fill="#161515"/>
<mask id="mask0_1269_381" style="mask-type:luminance" maskUnits="userSpaceOnUse" x="9" y="2" width="10" height="9">
<path d="M9.99902 3.38489C13.6963 3.38489 16.7056 6.39427 16.7056 10.0915H18.0292C18.0292 5.66472 14.4284 2.06128 9.99902 2.06128V3.38489Z" fill="white"/>
</mask>
<g mask="url(#mask0_1269_381)">
<path d="M18.0292 2.06396H9.99902V10.0942H18.0292V2.06396Z" fill="#161515"/>
</g>
<path d="M13.3929 15.693C12.3689 16.2949 11.1964 16.6127 10.0005 16.6127V17.9364C11.4309 17.9364 12.8379 17.5533 14.0625 16.8342C14.3778 16.6492 14.482 16.2428 14.297 15.9275C14.1745 15.7191 13.9531 15.6018 13.729 15.6018C13.6143 15.6018 13.4997 15.6305 13.3929 15.693Z" fill="#161515"/>
<mask id="mask1_1269_381" style="mask-type:luminance" maskUnits="userSpaceOnUse" x="9" y="15" width="6" height="3">
<path d="M13.3914 15.693C12.3674 16.2949 11.195 16.6127 9.99902 16.6127V17.9364C11.4295 17.9364 12.8364 17.5533 14.061 16.8342C14.3763 16.6492 14.4805 16.2428 14.2955 15.9275C14.1731 15.7191 13.9516 15.6018 13.7275 15.6018C13.6129 15.6018 13.4982 15.6305 13.3914 15.693Z" fill="white"/>
</mask>
<g mask="url(#mask1_1269_381)">
<path d="M14.4831 15.6018H9.99902V17.9364H14.4831V15.6018Z" fill="#161515"/>
</g>
<path d="M16.7081 9.90649C16.7081 11.0868 16.398 12.2489 15.8092 13.265C15.6268 13.5803 15.7336 13.9841 16.0489 14.1691C16.3642 14.3515 16.768 14.2447 16.953 13.9294C17.6565 12.7126 18.0317 11.3213 18.0317 9.9091H16.7081V9.90649Z" fill="#161515"/>
<mask id="mask2_1269_381" style="mask-type:luminance" maskUnits="userSpaceOnUse" x="15" y="9" width="4" height="6">
<path d="M16.7086 9.90625C16.7086 11.0866 16.3985 12.2486 15.8097 13.2648C15.6273 13.58 15.7341 13.9839 16.0494 14.1689C16.3647 14.3513 16.7685 14.2444 16.9535 13.9292C17.657 12.7124 18.0322 11.321 18.0322 9.90886H16.7086V9.90625Z" fill="white"/>
</mask>
<g mask="url(#mask2_1269_381)">
<path d="M18.0294 9.90625H15.6245V14.3487H18.0294V9.90625Z" fill="#161515"/>
</g>
<path d="M1.97021 9.90625C1.97021 14.333 5.57105 17.9365 10.0004 17.9365V16.6129C6.3032 16.6129 3.29382 13.6035 3.29382 9.90625H1.97021Z" fill="#161515"/>
<mask id="mask3_1269_381" style="mask-type:luminance" maskUnits="userSpaceOnUse" x="1" y="9" width="10" height="9">
<path d="M1.97168 9.90625C1.97168 14.333 5.57251 17.9365 10.0019 17.9365V16.6129C6.30467 16.6129 3.29529 13.6035 3.29529 9.90625H1.97168Z" fill="white"/>
</mask>
<g mask="url(#mask3_1269_381)">
<path d="M10.0019 9.90625H1.97168V17.9365H10.0019V9.90625Z" fill="#161515"/>
</g>
<path d="M1.97021 10.0913H3.29382C3.29382 6.3941 6.3032 3.38472 10.0004 3.38472V2.06372C5.57365 2.06372 1.97021 5.66456 1.97021 10.0939" fill="#161515"/>
<mask id="mask4_1269_381" style="mask-type:luminance" maskUnits="userSpaceOnUse" x="1" y="2" width="10" height="9">
<path d="M1.97168 10.0909H3.29529C3.29529 6.39361 6.30467 3.38423 10.0019 3.38423V2.06323C5.57512 2.06323 1.97168 5.66407 1.97168 10.0935" fill="white"/>
</mask>
<g mask="url(#mask4_1269_381)">
<path d="M10.0019 2.06323H1.97168V10.0935H10.0019V2.06323Z" fill="#161515"/>
</g>
</svg>
