<svg width="320" height="319" viewBox="0 0 320 319" fill="none" xmlns="http://www.w3.org/2000/svg">
<path d="M273.861 296.653C272.815 294.815 271.097 293.441 269.084 292.833C267.07 292.225 264.925 292.432 263.118 293.409C249.2 300.842 233.231 303.858 217.268 302.068C201.305 300.278 186.08 293.764 173.555 283.366C184.451 270.332 191.51 254.466 193.979 237.454C196.448 220.442 194.237 202.92 187.579 186.751C203.775 193.42 221.327 195.626 238.364 193.135C255.401 190.644 271.282 183.549 284.314 172.606C295.201 185.683 301.832 201.704 303.275 218.417C304.718 235.131 300.901 251.696 292.359 265.786C291.395 267.546 291.159 269.632 291.702 271.613C292.244 273.593 293.523 275.313 295.272 276.416C297.021 277.519 299.104 277.918 301.089 277.532C303.074 277.145 304.806 276.002 305.926 274.341C316.282 257.253 320.835 237.132 318.929 216.873C317.024 196.614 308.758 177.261 295.322 161.599C307.674 147.028 315.171 128.891 316.817 109.595C318.464 90.2989 314.182 70.7564 304.541 53.5616C304.027 52.6448 303.341 51.8321 302.522 51.1698C301.702 50.5075 300.766 50.0087 299.767 49.7018C298.767 49.3949 297.724 49.2859 296.696 49.381C295.668 49.4761 294.676 49.7735 293.776 50.2563C292.877 50.739 292.087 51.3975 291.453 52.1943C290.818 52.9911 290.351 53.9106 290.078 54.9002C289.806 55.8897 289.732 56.9301 289.863 57.9618C289.994 58.9935 290.325 59.9964 290.839 60.9132C298.755 75.0946 302.321 91.177 301.078 107.088C299.836 122.999 293.842 138.009 283.868 150.185C270.463 138.79 254.34 131.145 237.219 128.063C220.097 124.982 202.619 126.58 186.65 132.688C192.716 116.731 194.292 99.2814 191.212 82.1878C188.132 65.0942 180.511 48.9938 169.156 35.5932C181.876 25.1426 197.691 19.0566 214.376 18.1908C231.061 17.325 247.778 21.7231 262.176 30.7666C263.068 31.384 264.07 31.8185 265.121 32.044C266.171 32.2695 267.25 32.2812 268.29 32.0785C269.331 31.8758 270.313 31.4628 271.176 30.8645C272.04 30.2661 272.767 29.4949 273.314 28.5972C273.861 27.6995 274.216 26.694 274.359 25.6413C274.502 24.5886 274.429 23.5106 274.144 22.4722C273.86 21.4338 273.37 20.4567 272.704 19.5997C272.038 18.7426 271.21 18.0235 270.269 17.4857C252.825 6.51374 232.534 1.24986 212.325 2.45328C192.115 3.65669 173.031 11.2652 157.824 24.1814C142.27 10.7933 123.05 2.51897 102.909 0.539483C82.7669 -1.44 62.7329 2.97659 45.6666 13.1588C44.0006 14.2673 42.8482 15.9903 42.4488 17.9696C42.0495 19.9489 42.4339 22.0323 43.5223 23.7867C44.6107 25.5411 46.3192 26.8316 48.2929 27.39C50.2665 27.9484 52.3534 27.7317 54.1198 26.785C68.2014 18.4146 84.6934 14.7319 101.303 16.249C117.913 17.7661 133.814 24.4075 146.797 35.25C135.887 48.2758 128.814 64.1378 126.33 81.1496C123.846 98.1613 126.045 115.687 132.691 131.863C116.516 125.249 99.0024 123.074 82.0051 125.568C65.0079 128.062 49.1601 135.133 36.1402 146.032C25.5966 133.423 19.0071 118.049 17.2378 101.929C15.4685 85.8098 18.6022 69.6994 26.227 55.7155C27.2017 53.8932 27.3989 51.7331 26.7752 49.7105C26.1514 47.688 24.7578 45.9686 22.9009 44.9306C21.044 43.8926 18.8759 43.6211 16.8736 44.1757C14.8712 44.7303 13.1987 46.0657 12.2239 47.888C3.00693 64.83 -0.70074 84.3681 1.59959 103.875C3.89993 123.381 12.0979 141.92 25.0909 156.998C12.2372 172.102 4.62479 191.046 3.33991 211.127C2.05501 231.209 7.16332 251.401 17.9359 268.823C19.0541 270.627 20.8284 271.938 22.8684 272.466C24.9085 272.995 27.0471 272.698 28.814 271.641C30.5808 270.584 31.8311 268.854 32.2898 266.83C32.7484 264.807 32.3779 262.657 31.2597 260.853C22.3924 246.475 18.1291 229.846 19.0615 213.273C19.9939 196.7 26.0757 181.006 36.4627 168.37C49.8789 179.721 65.9969 187.328 83.1035 190.384C100.21 193.439 117.666 191.828 133.616 185.722C127.527 201.708 125.939 219.195 129.02 236.325C132.1 253.456 139.735 269.592 151.114 283.021C138.878 293.121 123.749 299.184 107.707 300.415C91.6646 301.646 75.458 297.988 61.2093 289.92C60.2952 289.267 59.2603 288.809 58.172 288.576C57.0837 288.343 55.9663 288.34 54.8926 288.567C53.8189 288.795 52.8129 289.247 51.9401 289.896C51.0672 290.544 50.347 291.374 49.8265 292.331C49.3059 293.288 48.9965 294.351 48.9185 295.451C48.8405 296.551 48.9956 297.663 49.3737 298.714C49.7518 299.766 50.3444 300.733 51.113 301.554C51.8816 302.375 52.809 303.031 53.8348 303.479C71.0905 313.278 90.7519 317.661 110.178 316.041C129.604 314.42 147.865 306.873 162.507 294.414C177.506 307.256 195.898 315.372 215.248 317.685C234.598 319.999 253.992 316.402 270.863 307.37C272.68 306.389 274.011 304.717 274.565 302.717C275.119 300.716 274.851 298.551 273.821 296.693M224.365 142.453C241.951 143.239 258.982 149.821 272.798 161.171C258.737 172.526 241.024 178.551 222.641 178.232C204.258 177.912 186.329 171.268 171.874 159.417C186.546 147.532 205.2 141.494 224.405 142.413M141.145 94.4411C141.334 76.8854 147.335 60.0858 158.211 46.6633C170.053 61.1088 176.695 79.0248 177.018 97.3955C177.341 115.766 171.326 133.47 159.984 147.527C147.664 132.443 141.022 113.619 141.268 94.484M99.5752 176.102C80.8418 176.072 62.49 169.447 47.736 157.387C61.7699 146.097 79.4267 140.111 97.7461 140.433C116.065 140.755 133.934 147.365 148.354 159.156C134.658 170.229 117.463 176.222 99.5558 176.163M143.424 218.828C143.624 201.333 149.578 184.587 160.369 171.171C172.181 185.599 178.804 203.483 179.126 221.821C179.449 240.158 173.451 257.831 162.14 271.871C149.748 256.78 143.066 237.909 143.32 218.725" fill="white" fill-opacity="0.25"/>
</svg>
