<svg width="384" height="72" viewBox="0 0 384 72" fill="none" xmlns="http://www.w3.org/2000/svg">
<g clip-path="url(#clip0_651_122)">
<path d="M120.192 36.7275C121.754 36.2937 123.034 35.4259 124.032 34.0987C125.03 32.7715 125.542 31.2912 125.542 29.6322C125.542 27.6159 124.826 25.8803 123.392 24.451C121.958 23.0218 120.243 22.3071 118.195 22.3071H96.5377C96.5377 22.3071 96.3329 22.3071 96.1025 22.3071C95.8721 22.3071 95.7185 22.3327 95.6161 22.3837C95.0529 22.5624 94.7969 22.9452 94.7969 23.5067C94.7969 23.5067 94.7969 23.5067 94.7969 23.5322C94.7969 23.5322 94.7969 23.5322 94.7969 23.5577C94.7969 23.5577 94.7969 23.5833 94.7969 23.6088V47.7024C94.7969 48.1107 94.9249 48.4425 95.2065 48.7233C95.4881 49.004 95.8209 49.1317 96.2305 49.1317C96.6401 49.1317 96.9729 49.004 97.2545 48.6978C97.5361 48.417 97.6897 48.0852 97.6897 47.7024V36.9828H117.043L123.648 48.417C123.904 48.902 124.339 49.1317 124.902 49.1317C125.158 49.1317 125.414 49.0806 125.619 48.953C125.978 48.7488 126.208 48.4681 126.285 48.0852C126.387 47.7024 126.336 47.3451 126.131 46.9877L120.166 36.6765L120.192 36.7275ZM97.6897 34.5071V24.7318H117.786C119.142 24.7318 120.294 25.2167 121.242 26.1611C122.189 27.1054 122.675 28.2795 122.675 29.6067C122.675 30.9339 122.189 32.1079 121.242 33.0523C120.294 33.9966 119.117 34.4815 117.786 34.4815H97.6897V34.5071Z" fill="white"/>
<path d="M173.517 24.7317C173.85 24.7317 174.132 24.6041 174.388 24.3744C174.618 24.1447 174.746 23.8384 174.746 23.5066C174.746 23.1748 174.618 22.8685 174.388 22.6388C174.157 22.4091 173.85 22.2815 173.517 22.2815H142.541C142.208 22.2815 141.927 22.4091 141.671 22.6388C141.44 22.8685 141.312 23.1748 141.312 23.5066C141.312 23.5066 141.312 23.5321 141.312 23.5576V23.6087C141.312 23.6087 141.312 23.6342 141.312 23.6597V23.7108V47.7278C141.312 47.7278 141.312 47.7533 141.312 47.7788C141.312 47.7788 141.312 47.8044 141.312 47.8299C141.312 47.8299 141.312 47.8554 141.312 47.8809V47.932C141.312 48.2638 141.44 48.5445 141.671 48.7998C141.901 49.0295 142.208 49.1571 142.541 49.1571H173.517C173.85 49.1571 174.132 49.0295 174.388 48.7998C174.618 48.57 174.746 48.2638 174.746 47.932C174.746 47.6002 174.618 47.3194 174.388 47.0642C174.157 46.8345 173.85 46.7069 173.517 46.7069H144.205V36.9316H173.517C173.85 36.9316 174.132 36.804 174.388 36.5743C174.618 36.3446 174.746 36.0638 174.746 35.7065C174.746 35.3492 174.618 35.094 174.388 34.8387C174.157 34.609 173.85 34.4814 173.517 34.4814H144.205V24.7062H173.517V24.7317Z" fill="white"/>
<path d="M219.546 32.9756C220.135 31.9037 220.442 30.7551 220.442 29.5045C220.442 27.4882 219.725 25.7527 218.292 24.3234C216.858 22.8941 215.143 22.1795 213.095 22.1795H191.437C191.258 22.1539 191.13 22.1284 191.105 22.1284C190.9 22.1284 190.695 22.1795 190.516 22.256C189.953 22.4602 189.671 22.8431 189.671 23.4046C189.671 23.4046 189.671 23.4046 189.671 23.4301V23.4556C189.671 23.4556 189.671 23.4556 189.671 23.4811C189.671 23.4811 189.671 23.4811 189.671 23.5322V47.6258C189.671 47.6258 189.671 47.6513 189.671 47.6768C189.671 47.6768 189.671 47.7023 189.671 47.7279C189.671 47.7279 189.671 47.7534 189.671 47.7789V47.8299C189.671 48.1617 189.799 48.4425 190.029 48.6977C190.26 48.9274 190.567 49.055 190.9 49.055H213.069C215.092 49.055 216.833 48.3404 218.266 46.9111C219.7 45.4818 220.417 43.7463 220.417 41.73C220.417 40.4794 220.109 39.3053 219.521 38.2333C218.932 37.1614 218.138 36.2936 217.14 35.63C218.138 34.9664 218.932 34.0731 219.521 33.0267M217.549 41.7555C217.549 43.1082 217.063 44.2567 216.116 45.2011C215.169 46.171 213.991 46.6304 212.66 46.6304H192.564V36.9317H212.941C214.221 37.0082 215.322 37.4932 216.218 38.412C217.114 39.3308 217.575 40.4283 217.575 41.73M216.218 32.8991C215.322 33.8434 214.221 34.3539 212.941 34.4304H192.564V24.6041H212.66C214.017 24.6041 215.169 25.0891 216.116 26.0589C217.063 27.0288 217.549 28.1773 217.549 29.53C217.549 30.8828 217.114 31.9547 216.192 32.8991" fill="white"/>
<path d="M264.857 26.2376C263.654 25.0381 262.22 24.0937 260.556 23.3791C258.892 22.6644 257.152 22.3071 255.308 22.3071H248.857C247.04 22.3071 245.273 22.6644 243.635 23.3791C241.971 24.0937 240.537 25.0381 239.334 26.2376C238.131 27.4372 237.184 28.8665 236.467 30.5255C235.75 32.1845 235.392 33.92 235.392 35.7322C235.392 37.5443 235.75 39.3054 236.467 40.9643C237.184 42.6233 238.131 44.0526 239.334 45.2522C240.537 46.4518 241.971 47.4216 243.635 48.1107C245.299 48.8254 247.04 49.1827 248.857 49.1827H255.308C257.126 49.1827 258.892 48.8254 260.556 48.1107C262.22 47.3961 263.654 46.4518 264.857 45.2522C266.06 44.0526 267.008 42.6233 267.724 40.9643C268.441 39.3054 268.8 37.5698 268.8 35.7322C268.8 33.8945 268.441 32.159 267.724 30.5255C267.008 28.8665 266.06 27.4372 264.857 26.2376ZM265.062 40.02C264.473 41.3727 263.705 42.5468 262.707 43.5422C261.734 44.512 260.556 45.3032 259.174 45.8903C257.817 46.4773 256.384 46.758 254.899 46.758H249.318C247.833 46.758 246.4 46.4773 245.043 45.8903C243.686 45.3032 242.508 44.5375 241.51 43.5422C240.537 42.5723 239.744 41.3982 239.155 40.02C238.566 38.6673 238.284 37.238 238.284 35.7577C238.284 34.2774 238.566 32.8481 239.155 31.4954C239.744 30.1426 240.512 28.9686 241.51 27.9732C242.483 27.0033 243.66 26.2121 245.043 25.6251C246.4 25.0381 247.833 24.7573 249.318 24.7573H254.899C256.384 24.7573 257.817 25.0381 259.174 25.6251C260.531 26.2121 261.708 26.9778 262.707 27.9732C263.68 28.9431 264.473 30.1171 265.062 31.4954C265.651 32.8481 265.932 34.2774 265.932 35.7577C265.932 37.238 265.651 38.6673 265.062 40.02Z" fill="white"/>
<path d="M309.12 36.7275C310.681 36.2937 311.961 35.4259 312.96 34.0987C313.958 32.7715 314.47 31.2912 314.47 29.6322C314.47 27.6159 313.753 25.8803 312.32 24.451C310.886 23.0218 309.171 22.3071 307.123 22.3071H285.465C285.465 22.3071 285.261 22.3071 285.03 22.3071C284.8 22.3071 284.646 22.3327 284.544 22.3837C283.981 22.5624 283.725 22.9452 283.725 23.5067C283.725 23.5067 283.725 23.5067 283.725 23.5322C283.725 23.5322 283.725 23.5322 283.725 23.5577C283.725 23.5577 283.725 23.5833 283.725 23.6088V47.7024C283.725 48.1107 283.853 48.4425 284.134 48.7233C284.416 49.004 284.749 49.1317 285.158 49.1317C285.568 49.1317 285.901 49.004 286.182 48.6978C286.464 48.417 286.617 48.0852 286.617 47.7024V36.9828H305.971L312.576 48.417C312.832 48.902 313.267 49.1317 313.83 49.1317C314.086 49.1317 314.342 49.0806 314.547 48.953C314.905 48.7488 315.136 48.4681 315.213 48.0852C315.315 47.7024 315.264 47.3451 315.059 46.9877L309.094 36.6765L309.12 36.7275ZM286.617 34.5071V24.7318H306.713C308.07 24.7318 309.222 25.2167 310.195 26.1611C311.142 27.1054 311.629 28.2795 311.629 29.6067C311.629 30.9339 311.142 32.1079 310.195 33.0523C309.248 33.9966 308.07 34.4815 306.713 34.4815H286.617V34.5071Z" fill="white"/>
<path d="M331.674 23.0216C331.29 23.0216 330.957 23.1748 330.675 23.4555C330.394 23.7363 330.24 24.0681 330.24 24.4764V48.4934C330.24 48.9018 330.368 49.2336 330.65 49.5143C330.931 49.7951 331.264 49.9227 331.674 49.9227C332.083 49.9227 332.416 49.7951 332.698 49.4888C332.979 49.2081 333.133 48.8763 333.133 48.4934V24.4509C333.133 24.0681 332.979 23.7363 332.698 23.43C332.416 23.1492 332.083 22.9961 331.674 22.9961" fill="white"/>
<path d="M383.744 46.8856L367.206 22.9962C367.206 22.9962 367.155 22.9452 367.104 22.8941C367.053 22.8431 367.027 22.8431 367.027 22.8175C367.027 22.8175 366.976 22.7665 366.95 22.741C366.925 22.6899 366.873 22.6644 366.848 22.6389C366.848 22.6389 366.617 22.5368 366.541 22.4858C366.541 22.4858 366.489 22.4857 366.438 22.4347C366.387 22.4347 366.361 22.4092 366.336 22.4092C366.336 22.4092 366.285 22.4092 366.208 22.4092H365.798C365.798 22.4092 365.747 22.4092 365.696 22.4347C365.645 22.4347 365.619 22.4858 365.593 22.4858C365.44 22.5368 365.337 22.5878 365.261 22.6389C365.261 22.6389 365.209 22.6899 365.158 22.741C365.107 22.792 365.081 22.8175 365.081 22.8175C365.081 22.8175 365.03 22.8431 365.005 22.8941C364.953 22.9196 364.928 22.9707 364.902 22.9962L348.365 46.8856C348.134 47.2174 348.057 47.5747 348.134 47.9576C348.211 48.3404 348.39 48.6467 348.723 48.8764C348.953 49.0295 349.235 49.1316 349.542 49.1316C350.029 49.1316 350.413 48.9274 350.72 48.5191L356.019 40.8622H376.141L381.44 48.5191C381.747 48.9274 382.131 49.1316 382.617 49.1316C382.925 49.1316 383.181 49.0551 383.437 48.8764C383.769 48.6467 383.949 48.3404 384.025 47.9576C384.102 47.5747 384.025 47.2174 383.795 46.8856M357.99 37.9781L366.08 26.3142L374.144 37.9781H357.99Z" fill="white"/>
<path d="M35.9427 51.2243V32.5415C35.9427 29.9637 36.7363 27.8453 38.3491 26.1608C39.9619 24.5018 42.0099 23.6596 44.5187 23.6596H48.1283C49.2803 23.6596 50.2275 22.7152 50.2275 21.5922V20.4182C50.2275 19.2697 49.2803 18.3508 48.1283 18.3508H44.3907C40.0643 18.3508 36.6339 19.5504 34.1507 21.9751C31.6419 24.3997 30.4131 27.7177 30.4131 31.9545V51.5561C30.4131 52.7556 31.3859 53.7255 32.5891 53.7255H33.8179C34.9955 53.7255 35.9683 52.7556 35.9939 51.5816V51.4795V51.2753L35.9427 51.2243Z" fill="white"/>
<mask id="mask0_651_122" style="mask-type:luminance" maskUnits="userSpaceOnUse" x="36" y="0" width="38" height="37">
<path d="M36.5312 5.99787C53.3505 5.99787 67.0464 19.6526 67.0464 36.4211H73.0625C73.0625 16.3346 56.6784 0 36.5312 0V5.99787Z" fill="white"/>
</mask>
<g mask="url(#mask0_651_122)">
<path d="M73.0625 0H36.5312V36.4211H73.0625V0Z" fill="url(#paint0_linear_651_122)"/>
</g>
<mask id="mask1_651_122" style="mask-type:luminance" maskUnits="userSpaceOnUse" x="36" y="61" width="21" height="11">
<path d="M51.968 61.8165C47.3088 64.5474 41.9841 65.9767 36.5312 65.9767V71.9746C43.0336 71.9746 49.4336 70.239 55.0144 66.9721C56.448 66.1298 56.9344 64.2922 56.0896 62.8629C55.5264 61.9185 54.528 61.3826 53.504 61.3826C52.992 61.3826 52.4544 61.5102 51.968 61.7909" fill="white"/>
</mask>
<g mask="url(#mask1_651_122)">
<path d="M56.9344 61.4082H36.5312V72.0002H56.9344V61.4082Z" fill="url(#paint1_linear_651_122)"/>
</g>
<mask id="mask2_651_122" style="mask-type:luminance" maskUnits="userSpaceOnUse" x="62" y="35" width="12" height="21">
<path d="M67.0465 35.5789C67.0465 40.9387 65.6385 46.1964 62.9505 50.816C62.1057 52.2453 62.5921 54.0829 64.0513 54.9252C65.4849 55.7419 67.3281 55.2825 68.1729 53.8277C71.3729 48.3148 73.0881 42.0106 73.0881 35.5789H67.0721H67.0465Z" fill="white"/>
</mask>
<g mask="url(#mask2_651_122)">
<path d="M73.0367 35.5789H62.1055V55.7419H73.0367V35.5789Z" fill="url(#paint2_linear_651_122)"/>
</g>
<mask id="mask3_651_122" style="mask-type:luminance" maskUnits="userSpaceOnUse" x="0" y="35" width="37" height="37">
<path d="M0 35.5789C0 55.6654 16.384 72 36.5312 72V66.0021C19.712 66.0021 6.016 52.3474 6.016 35.5789H0Z" fill="white"/>
</mask>
<g mask="url(#mask3_651_122)">
<path d="M36.5312 35.5789H0V72H36.5312V35.5789Z" fill="url(#paint3_linear_651_122)"/>
</g>
<mask id="mask4_651_122" style="mask-type:luminance" maskUnits="userSpaceOnUse" x="0" y="0" width="37" height="37">
<path d="M0 36.4211H6.016C6.016 19.6526 19.712 5.99787 36.5312 5.99787V0C16.384 0 0 16.3346 0 36.4211Z" fill="white"/>
</mask>
<g mask="url(#mask4_651_122)">
<path d="M36.5312 0H0V36.4211H36.5312V0Z" fill="url(#paint4_linear_651_122)"/>
</g>
</g>
<defs>
<linearGradient id="paint0_linear_651_122" x1="55.388" y1="35.2509" x2="55.388" y2="1.76644" gradientUnits="userSpaceOnUse">
<stop stop-color="#0088C0"/>
<stop offset="0.26" stop-color="#135E9C"/>
<stop offset="0.41" stop-color="#1D4B8B"/>
<stop offset="0.72" stop-color="#343D84"/>
<stop offset="1" stop-color="#46337F"/>
</linearGradient>
<linearGradient id="paint1_linear_651_122" x1="47.0016" y1="71.5357" x2="47.0016" y2="62.7456" gradientUnits="userSpaceOnUse">
<stop stop-color="#C2CD24"/>
<stop offset="0.47" stop-color="#A6B129"/>
<stop offset="0.6" stop-color="#8BA52C"/>
<stop offset="0.87" stop-color="#588F33"/>
<stop offset="1" stop-color="#458736"/>
</linearGradient>
<linearGradient id="paint2_linear_651_122" x1="67.0237" y1="53.7292" x2="67.0237" y2="38.513" gradientUnits="userSpaceOnUse">
<stop stop-color="#C2CD24"/>
<stop offset="0.47" stop-color="#A6B129"/>
<stop offset="0.6" stop-color="#8BA52C"/>
<stop offset="0.87" stop-color="#588F33"/>
<stop offset="1" stop-color="#458736"/>
</linearGradient>
<linearGradient id="paint3_linear_651_122" x1="18.5252" y1="68.4543" x2="18.5252" y2="36.2634" gradientUnits="userSpaceOnUse">
<stop stop-color="#FFE905"/>
<stop offset="0.01" stop-color="#FEE604"/>
<stop offset="0.44" stop-color="#ED8D02"/>
<stop offset="1" stop-color="#EC8014"/>
</linearGradient>
<linearGradient id="paint4_linear_651_122" x1="19.3167" y1="35.2006" x2="19.3167" y2="1.24807" gradientUnits="userSpaceOnUse">
<stop stop-color="#EA7675"/>
<stop offset="0.29" stop-color="#E75A59"/>
<stop offset="0.54" stop-color="#E54746"/>
<stop offset="0.75" stop-color="#E2353B"/>
<stop offset="1" stop-color="#E02431"/>
</linearGradient>
<clipPath id="clip0_651_122">
<rect width="384" height="72" fill="white"/>
</clipPath>
</defs>
</svg>
