<svg width="30" height="31" viewBox="0 0 30 31" fill="none" xmlns="http://www.w3.org/2000/svg">
<g clip-path="url(#clip0_651_121)">
<path d="M27.3423 26.0086L20.5562 19.2225C21.8831 17.5844 22.6819 15.5017 22.6819 13.2343C22.6819 7.97788 18.4054 3.70142 13.149 3.70142C7.89263 3.70142 3.61621 7.97788 3.61621 13.2343C3.61621 18.4907 7.89268 22.7671 13.1491 22.7671C15.4165 22.7671 17.4992 21.9683 19.1373 20.6415L25.952 27.4562C26.1606 27.6355 26.8017 28.0357 27.3811 27.4562C27.8831 26.9542 27.5252 26.1915 27.3423 26.0086ZM13.1491 20.7602C8.99904 20.7602 5.62314 17.3843 5.62314 13.2343C5.62314 9.08424 8.99904 5.70835 13.1491 5.70835C17.2991 5.70835 20.675 9.08424 20.675 13.2343C20.675 17.3843 17.2991 20.7602 13.1491 20.7602Z" fill="white"/>
</g>
<defs>
<clipPath id="clip0_651_121">
<rect width="30" height="30" fill="white" transform="translate(0 0.5)"/>
</clipPath>
</defs>
</svg>
