<svg width="29" height="27" viewBox="0 0 29 27" fill="none" xmlns="http://www.w3.org/2000/svg">
<path fill-rule="evenodd" clip-rule="evenodd" d="M29 13.5C29 20.9558 22.5081 27 14.5 27C6.49187 27 0 20.9558 0 13.5C0 6.04416 6.49187 0 14.5 0C22.5081 0 29 6.04416 29 13.5ZM15.0196 9.9663C13.6093 10.5124 10.7906 11.6428 6.56354 13.3575C5.87713 13.6116 5.51756 13.8602 5.48483 14.1033C5.42951 14.5142 5.98211 14.676 6.73461 14.8963C6.83697 14.9262 6.94303 14.9573 7.05176 14.9902C7.7921 15.2142 8.788 15.4764 9.30572 15.4868C9.77535 15.4962 10.2995 15.316 10.8782 14.946C14.8277 12.4639 16.8664 11.2093 16.9944 11.1822C17.0847 11.1632 17.2098 11.1392 17.2946 11.2093C17.3794 11.2795 17.371 11.4124 17.3621 11.448C17.3073 11.6653 15.1382 13.5429 14.0156 14.5145C13.6657 14.8174 13.4174 15.0323 13.3667 15.0813C13.253 15.1913 13.1372 15.2952 13.0258 15.3952C12.338 16.0125 11.8222 16.4754 13.0544 17.2314C13.6465 17.5947 14.1203 17.8951 14.593 18.1948C15.1092 18.5221 15.6241 18.8486 16.2903 19.2551C16.46 19.3587 16.6221 19.4663 16.78 19.5711C17.3808 19.9698 17.9205 20.3281 18.5873 20.271C18.9748 20.2378 19.375 19.8986 19.5782 18.8869C20.0586 16.496 21.0028 11.3158 21.221 9.1811C21.2401 8.99407 21.2161 8.75472 21.1968 8.64965C21.1775 8.54457 21.1371 8.39487 20.9904 8.28405C20.8167 8.1528 20.5485 8.12513 20.4285 8.12709C19.8832 8.13604 19.0464 8.40692 15.0196 9.9663Z" fill="white"/>
</svg>
