<svg width="126" height="126" viewBox="0 0 126 126" fill="none" xmlns="http://www.w3.org/2000/svg">
<g clip-path="url(#clip0_32_616)">
<path d="M125.42 62.71C125.42 75.1129 121.742 87.2372 114.851 97.5498C107.961 107.862 98.1669 115.9 86.7081 120.646C75.2494 125.393 62.6405 126.635 50.4759 124.215C38.3114 121.795 27.1375 115.823 18.3674 107.053C9.59721 98.2825 3.62466 87.1087 1.20498 74.9441C-1.2147 62.7796 0.0271716 50.1707 4.77354 38.7119C9.51991 27.2532 17.5576 17.4592 27.8702 10.5685C38.1828 3.67788 50.3072 0 62.71 0C79.3418 0 95.2923 6.60693 107.053 18.3673C118.813 30.1277 125.42 46.0783 125.42 62.71Z" fill="#141313"/>
<path d="M62.5 125C50.1387 125 38.055 121.334 27.7769 114.467C17.4988 107.599 9.48803 97.8381 4.75756 86.4177C0.0270803 74.9973 -1.21063 62.4307 1.20095 50.3069C3.61252 38.1831 9.56507 27.0466 18.3058 18.3058C27.0466 9.56507 38.1831 3.61252 50.3069 1.20095C62.4307 -1.21063 74.9973 0.0270803 86.4177 4.75756C97.8381 9.48803 107.599 17.4988 114.467 27.7769C121.334 38.055 125 50.1387 125 62.5C124.982 79.0705 118.391 94.957 106.674 106.674C94.957 118.391 79.0705 124.982 62.5 125ZM62.5 1.96204C50.5267 1.96204 38.8223 5.51253 28.8669 12.1645C18.9115 18.8165 11.1522 28.2713 6.57022 39.3331C1.98825 50.395 0.789392 62.5672 3.12526 74.3104C5.46113 86.0536 11.2268 96.8404 19.6932 105.307C28.1596 113.773 38.9464 119.539 50.6896 121.875C62.4329 124.211 74.605 123.012 85.6669 118.43C96.7288 113.848 106.184 106.089 112.835 96.1331C119.487 86.1777 123.038 74.4733 123.038 62.5C123.02 46.4499 116.636 31.0624 105.287 19.7133C93.9376 8.36414 78.5501 1.98022 62.5 1.96204Z" fill="white"/>
<path d="M29.8101 56.52C29.3554 53.6129 29.8131 50.6362 31.1201 48C32.88 44.4876 35.1739 41.2694 37.9201 38.46C40.8324 35.6298 44.4578 33.6426 48.4101 32.71C52.1101 31.81 55.7001 32.28 58.5201 35.28C58.9452 35.7685 59.3111 36.3056 59.6101 36.88C61.4701 40.51 62.7701 44.31 62.4401 48.49C62.1588 50.8506 61.4614 53.1427 60.3801 55.26C59.4766 57.0299 58.6817 58.8533 58.0001 60.72C56.9201 64.15 57.6601 67.5 59.0001 70.72C60.6001 74.6 63.1101 77.89 65.6101 81.21C67.3502 83.421 68.95 85.7389 70.4001 88.15C71.9659 90.9421 72.8563 94.062 73.0001 97.26C73.2901 102.62 69.5201 107.53 64.1701 108C60.8001 108.29 58.4901 106.71 56.5701 104.56C54.9153 102.686 53.5655 100.563 52.5701 98.27C51.2701 95.19 50.0001 92.08 48.7501 89C45.9187 82.0159 41.8805 75.5845 36.8201 70C34.2114 67.1381 32.1475 63.8237 30.7301 60.22C30.2845 59.0392 29.9758 57.8112 29.8101 56.56" fill="white"/>
<path d="M48.2699 18C49.3891 18.1156 50.4412 18.5891 51.2699 19.35C52.45 20.3792 53.3968 21.6485 54.0469 23.0729C54.6971 24.4974 55.0356 26.0442 55.0399 27.61C55.0698 28.214 54.9417 28.8153 54.6683 29.3547C54.395 29.8941 53.9858 30.353 53.4811 30.6861C52.9764 31.0191 52.3936 31.215 51.7902 31.2543C51.1868 31.2935 50.5835 31.1749 50.0399 30.91C48.3616 30.1713 46.8791 29.0506 45.7106 27.6373C44.5422 26.2241 43.7201 24.5573 43.3099 22.77C42.6099 19.82 44.9599 17.6 48.2399 18" fill="white"/>
<path d="M43.8698 30.2C43.5198 32.88 41.2098 34.06 38.9698 32.56C37.86 31.8175 36.9688 30.7919 36.3886 29.5893C35.8084 28.3866 35.5602 27.0508 35.6698 25.72C35.7055 25.2624 35.8479 24.8195 36.0855 24.4268C36.3231 24.0341 36.6494 23.7024 37.0382 23.4585C37.427 23.2145 37.8675 23.065 38.3245 23.0218C38.7815 22.9787 39.2422 23.0431 39.6698 23.21C41.037 23.7606 42.1876 24.7417 42.9473 26.0048C43.707 27.2679 44.0343 28.7442 43.8798 30.21" fill="white"/>
<path d="M30.6298 32.78C30.8898 30.78 32.3598 29.87 34.1998 30.66C35.0145 30.9863 35.7289 31.5212 36.2713 32.2111C36.8137 32.9009 37.1649 33.7214 37.2898 34.59C37.4343 35.0878 37.4151 35.6188 37.235 36.1049C37.055 36.5909 36.7237 37.0064 36.2898 37.29C35.8289 37.6281 35.2809 37.8276 34.7105 37.8648C34.14 37.902 33.5708 37.7754 33.0698 37.5C32.2498 37.0346 31.5833 36.3403 31.1517 35.502C30.7201 34.6637 30.5422 33.7178 30.6398 32.78" fill="white"/>
<path d="M30.0998 42.66C29.5999 42.5935 29.1197 42.422 28.6906 42.157C28.2615 41.8919 27.8933 41.5391 27.61 41.1218C27.3268 40.7045 27.1349 40.2321 27.047 39.7354C26.9591 39.2388 26.9771 38.7292 27.0998 38.24C27.2132 37.8 27.4731 37.4117 27.8366 37.139C28.2001 36.8664 28.6457 36.7256 29.0998 36.74C29.64 36.775 30.1654 36.9311 30.6371 37.1966C31.1087 37.4621 31.5147 37.8303 31.8248 38.274C32.135 38.7176 32.3414 39.2253 32.4288 39.7595C32.5162 40.2937 32.4824 40.8407 32.3298 41.36C32.1716 41.8052 31.8608 42.18 31.4526 42.4179C31.0444 42.6559 30.5652 42.7416 30.0998 42.66Z" fill="white"/>
<path d="M24.6098 45.47C24.6401 45.1181 24.7586 44.7796 24.9543 44.4857C25.1501 44.1918 25.4169 43.952 25.7299 43.7885C26.0429 43.625 26.3921 43.5431 26.7451 43.5504C27.0982 43.5576 27.4437 43.6538 27.7498 43.83C28.4115 44.1844 28.9215 44.7675 29.1846 45.4705C29.4478 46.1735 29.4461 46.9482 29.1798 47.65C29.0927 47.9 28.9503 48.1271 28.7632 48.3144C28.5761 48.5018 28.3491 48.6445 28.0992 48.732C27.8494 48.8194 27.5829 48.8494 27.3199 48.8196C27.0568 48.7898 26.8038 48.7011 26.5798 48.56C25.9796 48.2985 25.4698 47.866 25.1141 47.3164C24.7583 46.7668 24.5725 46.1246 24.5798 45.47" fill="white"/>
<path d="M98.3502 56.39C95.6702 63.49 90.4402 69.73 87.8602 74C85.1302 78.57 84.6102 80.55 81.3502 89.21C77.8302 98.56 74.2702 105.05 69.5202 107.08C64.7702 109.11 56.6702 108.45 54.9402 99.39C53.7502 93.18 59.2802 83.74 61.5602 80C63.8402 76.26 68.8202 67.94 69.1702 61.85C69.5302 55.57 69.0102 48.23 69.3402 45.13C69.9102 39.76 72.6002 34.57 76.7702 27.91C80.9402 21.25 83.9602 18.14 87.7702 17.55C91.5802 16.96 96.2602 18 98.8302 25.11C101.6 32.78 101.48 48.11 98.3302 56.44" fill="#141313"/>
<path d="M98.3502 56.39C95.6702 63.49 90.4402 69.73 87.8602 74C85.1302 78.57 84.6102 80.55 81.3502 89.21C77.8302 98.56 74.2702 105.05 69.5202 107.08C64.7702 109.11 56.6702 108.45 54.9402 99.39C53.7502 93.18 59.2802 83.74 61.5602 80C63.8402 76.26 68.8202 67.94 69.1702 61.85C69.5302 55.57 69.0102 48.23 69.3402 45.13C69.9102 39.76 72.6002 34.57 76.7702 27.91C80.9402 21.25 83.9602 18.14 87.7702 17.55C91.5802 16.96 96.2602 18 98.8302 25.11C101.62 32.73 101.5 48.08 98.3502 56.39Z" fill="#141313"/>
<path d="M64.7701 109.07C62.9293 109.087 61.1125 108.651 59.4801 107.8C57.4801 106.73 54.8801 104.44 53.9601 99.61C52.6601 92.79 58.7101 82.74 60.7001 79.44C62.8401 75.89 67.8401 67.6 68.1701 61.75C68.3601 58.5 68.3101 54.98 68.2601 51.87C68.2601 48.99 68.1901 46.51 68.3501 44.97C68.9401 39.41 71.6901 34.1 75.9201 27.33C79.7801 21.17 83.0901 17.21 87.6401 16.51C91.6401 15.9 96.9401 16.84 99.7901 24.72C102.71 32.79 102.46 48.35 99.2901 56.72C97.3501 61.83 94.1201 66.51 91.5301 70.28C90.4701 71.82 89.4701 73.28 88.7201 74.52C86.5101 78.22 85.8101 80.08 83.7201 85.63C83.3001 86.78 82.8201 88.07 82.2501 89.57C78.1201 100.57 74.4201 106.06 69.8801 108C68.2638 108.69 66.5272 109.053 64.7701 109.07ZM89.5501 18.36C89.0108 18.3602 88.4724 18.4036 87.9401 18.49C84.6201 19 81.8201 21.68 77.6201 28.39C73.5301 34.92 70.8901 40 70.3401 45.18C70.1901 46.61 70.2201 49.03 70.2601 51.84C70.2601 54.98 70.3601 58.54 70.1701 61.84C69.8101 68.18 64.8201 76.47 62.4201 80.45C57.3401 88.87 55.1601 95.19 55.9301 99.21C56.5501 102.47 58.0601 104.75 60.4201 106.01C61.7751 106.655 63.2523 107.003 64.7528 107.031C66.2533 107.058 67.7423 106.765 69.1201 106.17C73.0601 104.49 76.5401 99.17 80.4101 88.87L81.8801 85C83.9301 79.47 84.7001 77.41 87.0001 73.55C87.7801 72.25 88.8001 70.77 89.8801 69.2C92.4201 65.53 95.5701 60.95 97.4201 56.07C100.42 48.18 100.65 33 97.9101 25.43C96.2201 20.72 93.4101 18.36 89.5501 18.36Z" fill="white"/>
</g>
<defs>
<clipPath id="clip0_32_616">
<rect width="125.42" height="125.42" fill="white"/>
</clipPath>
</defs>
</svg>
