<svg width="133" height="125" viewBox="0 0 133 125" fill="none" xmlns="http://www.w3.org/2000/svg">
<g clip-path="url(#clip0_32_577)">
<mask id="mask0_32_577" style="mask-type:luminance" maskUnits="userSpaceOnUse" x="-477" y="-613" width="1360" height="968">
<path d="M882.518 -612.326H-476.859V354.578H882.518V-612.326Z" fill="white"/>
</mask>
<g mask="url(#mask0_32_577)">
<path d="M100.385 4.18274C100.385 4.18274 98.0741 10.6764 102.55 18.3307C107.025 25.9851 112.902 28.6515 115.401 34.3609C117.419 38.9828 117.262 44.7549 107.6 49.8055C97.9382 54.8562 87.5337 61.4962 83.9261 67.582C80.3185 73.6678 77.6521 80.5484 73.8249 84.9089C71.0852 88.0459 67.3208 91.1202 49.2724 89.5307C31.2241 87.9413 28.6517 89.1857 26.78 87.3139C24.9082 85.4421 24.7514 78.2165 33.9951 77.3486C41.9109 76.6062 48.2895 74.609 51.8971 67.9375C55.5047 61.2661 60.9945 38.5332 67.3417 32.5624C71.8695 28.3065 72.5701 10.4777 71.0957 6.13815" fill="#141313"/>
<path d="M58.0353 90.9737C55.5257 90.9737 52.6083 90.8378 49.2098 90.545C41.4614 89.8549 36.5885 89.7085 33.3679 89.6144C28.9028 89.4784 27.3971 89.4366 26.0481 88.0772C25.3438 87.22 24.8837 86.1886 24.7162 85.0918C24.5487 83.995 24.6801 82.8734 25.0966 81.845C25.7553 80.0255 27.763 76.878 33.8593 76.3029C43.0404 75.4455 47.9864 72.8836 50.9352 67.467C52.6804 63.7028 54.1789 59.8291 55.4211 55.8704C58.6627 46.4594 62.3331 35.8458 66.6099 31.8199C70.8867 27.7941 71.4304 10.4568 70.0606 6.50411C69.9892 6.24074 70.0237 5.9599 70.1565 5.72154C70.2894 5.48319 70.5101 5.30621 70.7717 5.22839C71.0351 5.14262 71.3219 5.16493 71.5689 5.2904C71.8159 5.41588 72.0031 5.63428 72.0892 5.89762C73.6368 10.5509 72.9989 28.777 68.0634 33.4093C64.163 37.0692 60.4195 47.9024 57.4184 56.6129C56.1493 60.6767 54.6123 64.652 52.8174 68.5126C48.6975 76.052 41.0327 77.7355 34.0894 78.4256C30.4295 78.7707 27.9513 80.2451 27.1043 82.6083C26.8346 83.2591 26.7307 83.9666 26.8019 84.6675C26.8731 85.3683 27.1171 86.0405 27.5121 86.6237C28.265 87.3766 29.2688 87.4289 33.4306 87.5544C36.6722 87.6485 41.5869 87.8054 49.3876 88.485C67.9692 90.0745 70.8971 86.6656 73.0512 84.1769C75.3935 81.4686 77.3385 77.7146 79.388 73.7201C80.5487 71.4824 81.7408 69.1819 83.0479 66.9755C87.0214 60.3041 98.3357 53.3817 107.098 48.8226C114.491 44.964 116.896 40.3526 114.418 34.7269C113.247 32.0395 111.281 30.0527 108.939 27.7418C106.105 25.1106 103.643 22.1064 101.619 18.8117C97.0077 10.8437 99.3395 4.08861 99.4232 3.80627C99.5147 3.54004 99.7082 3.32106 99.9612 3.19752C100.214 3.07397 100.506 3.05598 100.772 3.1475C101.038 3.23902 101.257 3.43255 101.381 3.68552C101.504 3.93849 101.522 4.23018 101.431 4.49642C100.866 6.73661 100.76 9.06798 101.119 11.3502C101.479 13.6325 102.296 15.8184 103.522 17.7765C105.455 20.9165 107.805 23.7798 110.507 26.2883C112.86 28.6411 115.087 30.8579 116.426 33.9113C119.364 40.6349 116.583 46.2921 108.144 50.7048C96.0561 56.9789 87.7952 63.1902 84.8883 68.063C83.6125 70.2171 82.4309 72.4967 81.2911 74.6926C79.1998 78.7916 77.1816 82.6502 74.672 85.5467C72.1624 88.4432 68.879 90.9737 58.0353 90.9737Z" fill="white"/>
<path d="M58.4007 98.1784C56.8322 98.1784 55.4937 98.1052 54.5213 98.053C46.2291 97.6242 28.965 96.3381 28.7977 96.3276C28.6554 96.3187 28.5164 96.2808 28.3893 96.2162C28.2622 96.1516 28.1497 96.0617 28.0586 95.952C27.9675 95.8423 27.8998 95.7151 27.8597 95.5783C27.8195 95.4415 27.8078 95.298 27.8252 95.1564C27.8357 95.019 27.8734 94.8849 27.9359 94.7621C27.9985 94.6392 28.0847 94.5299 28.1897 94.4405C28.2947 94.3511 28.4163 94.2833 28.5475 94.2411C28.6788 94.1988 28.8171 94.183 28.9545 94.1944C29.1218 94.1944 46.3546 95.5015 54.6258 95.9302C63.4409 96.3903 75.8217 95.7107 81.3533 84.6265C87.4496 72.4862 93.274 65.3547 100.813 60.8583C102.528 59.8126 104.285 58.767 106.042 57.8363C112.431 54.1764 119.039 50.3911 120.211 47.2854C120.309 47.0247 120.507 46.8138 120.761 46.6991C121.015 46.5844 121.304 46.5753 121.565 46.6737C121.825 46.7722 122.036 46.9701 122.151 47.2241C122.266 47.4781 122.275 47.7672 122.176 48.0279C120.733 51.8341 114.407 55.4522 107.077 59.6453C105.362 60.6283 103.616 61.6321 101.911 62.6464C94.7275 66.9337 89.154 73.8038 83.246 85.6513C77.6621 96.7459 65.5636 98.1784 58.4007 98.1784Z" fill="white"/>
<path d="M129.559 125H0.962251C0.756695 124.999 0.555949 124.938 0.385103 124.823C0.214258 124.709 0.0808906 124.547 0.00167166 124.357C-0.0775473 124.168 -0.0991042 123.959 -0.0603047 123.757C-0.0215053 123.555 0.0759294 123.369 0.219821 123.222L22.8587 100.155C22.9555 100.056 23.071 99.9774 23.1985 99.9235C23.3259 99.8697 23.4628 99.8416 23.6011 99.8411H28.6308C28.9081 99.8411 29.1741 99.9512 29.3702 100.147C29.5663 100.343 29.6765 100.609 29.6765 100.887C29.6765 101.164 29.5663 101.43 29.3702 101.626C29.1741 101.822 28.9081 101.932 28.6308 101.932H24.0508L3.45096 122.909H127.28L109.315 101.932H101.912C101.634 101.932 101.368 101.822 101.172 101.626C100.976 101.43 100.866 101.164 100.866 100.887C100.866 100.609 100.976 100.343 101.172 100.147C101.368 99.9512 101.634 99.8411 101.912 99.8411H109.796C109.947 99.8411 110.096 99.8738 110.234 99.9369C110.371 100 110.493 100.092 110.591 100.207L130.354 123.275C130.483 123.428 130.565 123.614 130.591 123.813C130.617 124.011 130.586 124.213 130.5 124.394C130.417 124.573 130.285 124.726 130.118 124.833C129.951 124.941 129.758 124.999 129.559 125Z" fill="white"/>
<path d="M98.1889 103.334L110.13 119.207H21.0703L33.6184 104.568C41.2918 109.674 50.0218 112.978 59.1538 114.23C73.4691 115.892 92.7513 107.014 98.2307 103.375" fill="white"/>
<path d="M64.9679 115.233C50.3195 115.211 36.2357 109.58 25.609 99.4978C14.9823 89.4155 8.61944 75.647 7.82713 61.02C7.03482 46.393 11.8732 32.0177 21.3486 20.8466C30.8241 9.67546 44.2172 2.55642 58.7775 0.951564L60.7748 0.773799C60.9121 0.764187 61.05 0.781716 61.1805 0.825385C61.3111 0.869054 61.4317 0.938009 61.5356 1.02831C61.6395 1.11861 61.7246 1.2285 61.786 1.35169C61.8475 1.47487 61.884 1.60896 61.8936 1.74628C61.9033 1.8836 61.8857 2.02147 61.8421 2.15201C61.7984 2.28256 61.7294 2.40322 61.6391 2.50712C61.5488 2.61102 61.4389 2.69611 61.3158 2.75754C61.1926 2.81897 61.0585 2.85554 60.9212 2.86515C60.2833 2.86515 59.6454 2.96972 58.9971 3.03246C48.4943 4.17464 38.5397 8.3062 30.3147 14.9368C22.0898 21.5673 15.9399 30.4185 12.595 40.4397C9.25002 50.461 8.85048 61.2315 11.4438 71.473C14.0371 81.7146 19.5143 90.997 27.2253 98.2188C34.9364 105.44 44.5576 110.298 54.9469 112.215C65.3363 114.133 76.0575 113.029 85.8383 109.035C95.619 105.041 104.049 98.3248 110.126 89.6834C116.204 81.042 119.675 70.8382 120.127 60.2832C120.14 60.0058 120.262 59.7448 120.467 59.5575C120.672 59.3703 120.943 59.2721 121.22 59.2845C121.497 59.297 121.758 59.4192 121.946 59.6241C122.133 59.829 122.231 60.0999 122.219 60.3773C121.624 75.1502 115.327 89.1178 104.652 99.3466C93.9765 109.576 79.7528 115.27 64.9679 115.233Z" fill="white"/>
</g>
</g>
<defs>
<clipPath id="clip0_32_577">
<rect width="132.173" height="125" fill="white"/>
</clipPath>
</defs>
</svg>
