<svg width="110" height="110" viewBox="0 0 110 110" fill="none" xmlns="http://www.w3.org/2000/svg">
<path d="M93.5458 102.042C93.1904 101.415 92.6046 100.947 91.9168 100.742C91.229 100.537 90.4951 100.61 89.876 100.946C85.1075 103.505 79.6429 104.556 74.1862 103.963C68.7295 103.37 63.5309 101.161 59.2603 97.6208C63.0025 93.1503 65.4355 87.716 66.3007 81.8955C67.1658 76.075 66.4308 70.0858 64.1738 64.5645C69.7042 66.8253 75.7039 67.5585 81.5329 66.6859C87.3619 65.8132 92.8015 63.3676 97.2714 59.6097C100.979 64.0684 103.227 69.5389 103.7 75.2525C104.173 80.9662 102.847 86.6358 99.9092 91.4646C99.5772 92.0673 99.4941 92.7813 99.6772 93.4577C99.8603 94.1342 100.296 94.721 100.892 95.096C101.489 95.4709 102.201 95.605 102.88 95.4704C103.559 95.3358 104.153 94.9428 104.538 94.3733C108.1 88.5171 109.682 81.6309 109.055 74.7054C108.428 67.7798 105.625 61.1718 101.049 55.832C105.291 50.8343 107.877 44.6229 108.463 38.0222C109.05 31.4216 107.609 24.7439 104.333 18.8755C104.158 18.5627 103.925 18.2856 103.646 18.0601C103.366 17.8346 103.047 17.6652 102.705 17.5614C102.364 17.4577 102.007 17.4217 101.656 17.4555C101.304 17.4892 100.964 17.5922 100.656 17.7583C100.348 17.9245 100.077 18.1507 99.8591 18.4239C99.6412 18.6972 99.4804 19.0122 99.3859 19.3509C99.2914 19.6896 99.2651 20.0455 99.3085 20.3981C99.3519 20.7508 99.4641 21.0933 99.6387 21.4062C102.328 26.2462 103.528 31.7415 103.084 37.1841C102.64 42.6266 100.572 47.767 97.146 51.9427C92.576 48.0626 87.0717 45.4676 81.2204 44.4347C75.3692 43.4018 69.3904 43.9697 63.922 46.0779C66.0156 40.6137 66.5759 34.6445 65.5435 28.8027C64.5111 22.961 61.9245 17.4645 58.0577 12.8957C62.4203 9.30647 67.8358 7.20597 73.5427 6.88959C79.2496 6.57321 84.9609 8.05686 89.8736 11.1319C90.1778 11.342 90.5198 11.4894 90.8789 11.5652C91.238 11.641 91.6067 11.6437 91.9629 11.5731C92.319 11.5025 92.6552 11.3601 92.9512 11.1545C93.2472 10.9488 93.4968 10.6842 93.6849 10.3765C93.8731 10.0689 93.9959 9.72457 94.046 9.36441C94.0961 9.00425 94.0724 8.63569 93.9764 8.28095C93.8804 7.92621 93.714 7.59265 93.4873 7.30038C93.2606 7.00812 92.9782 6.76321 92.6573 6.58043C86.7052 2.84961 79.7729 1.07423 72.8604 1.51036C65.9478 1.94649 59.4124 4.57158 54.1966 9.00702C48.8938 4.44766 42.3313 1.64149 35.4459 0.989085C28.5604 0.336683 21.7041 1.8714 15.8556 5.37416C15.2845 5.75528 14.8883 6.34589 14.7493 7.02323C14.6103 7.70057 14.7393 8.41255 15.1093 9.01118C15.4794 9.60981 16.0621 10.049 16.7363 10.2376C17.4106 10.4262 18.1245 10.3495 18.7297 10.0236C23.5553 7.14406 29.1996 5.86462 34.8777 6.3632C40.5558 6.86178 45.9856 9.11359 50.4122 12.8056C46.6653 17.2733 44.2272 22.7062 43.3571 28.5267C42.487 34.3472 43.2175 40.3378 45.4708 45.8615C39.9474 43.6193 33.9609 42.8968 28.1454 43.7704C22.3298 44.644 16.9017 47.0813 12.4361 50.8241C8.84585 46.5252 6.61117 41.2757 6.02575 35.7655C5.44033 30.2553 6.53155 24.7422 9.15601 19.9509C9.49157 19.3265 9.56164 18.5876 9.3508 17.8967C9.13995 17.2058 8.66547 16.6195 8.03173 16.2668C7.39798 15.9141 6.65689 15.8239 5.97149 16.016C5.28608 16.2081 4.7125 16.6668 4.37694 17.2912C1.2044 23.096 -0.0872894 29.782 0.675603 36.4497C1.4385 43.1175 4.21939 49.4473 8.64423 54.5876C4.23028 59.7684 1.60402 66.256 1.14018 73.1247C0.676349 79.9934 2.39865 86.8924 6.06132 92.837C6.44152 93.4526 7.04667 93.8986 7.74366 94.0768C8.44065 94.2551 9.17237 94.1509 9.77786 93.7874C10.3834 93.4238 10.813 92.8306 10.9723 92.1382C11.1316 91.4458 11.0075 90.711 10.6273 90.0953C7.61253 85.1894 6.17485 79.5078 6.51386 73.8393C6.85288 68.1708 8.95176 62.7965 12.5192 58.4626C17.0933 62.328 22.5959 64.9099 28.4421 65.9339C34.2883 66.9579 40.2597 66.3858 45.7216 64.2783C43.6199 69.7526 43.0554 75.7342 44.088 81.5886C45.1207 87.443 47.7119 92.9517 51.5868 97.5302C47.3902 100.999 42.209 103.091 36.7216 103.531C31.2343 103.972 25.6966 102.741 20.8338 99.999C20.522 99.7767 20.1686 99.6213 19.7968 99.5429C19.4249 99.4645 19.0428 99.4648 18.6753 99.5439C18.3079 99.623 17.9633 99.779 17.664 100.002C17.3647 100.225 17.1175 100.509 16.9383 100.837C16.7591 101.165 16.652 101.529 16.624 101.905C16.596 102.281 16.6477 102.661 16.7757 103.021C16.9037 103.38 17.1052 103.71 17.367 103.99C17.6289 104.269 17.9452 104.493 18.2954 104.645C24.1844 107.974 30.9027 109.45 37.5478 108.872C44.1929 108.294 50.4466 105.691 55.4688 101.412C60.5825 105.786 66.8622 108.539 73.4763 109.306C80.0905 110.074 86.7272 108.82 92.5076 105.711C93.1301 105.373 93.5872 104.8 93.779 104.115C93.9709 103.431 93.8821 102.69 93.532 102.056M76.8074 49.3711C82.8204 49.6186 88.6364 51.8487 93.3473 55.7132C88.525 59.6134 82.4602 61.6954 76.1742 61.6085C69.8883 61.5217 63.7653 59.2712 58.8366 55.2363C63.8683 51.1541 70.2546 49.0665 76.8212 49.3573M48.4071 33.0539C48.4933 27.0502 50.5658 21.298 54.3012 16.6946C58.3336 21.6202 60.5831 27.7388 60.6712 34.0206C60.7593 40.3024 58.6805 46.3638 54.7849 51.1845C50.5902 46.0413 48.3418 39.6124 48.4492 33.0685M34.0923 61.0301C27.6861 61.0427 21.4184 58.7992 16.3877 54.6931C21.2005 50.8151 27.2459 48.7467 33.5102 48.8345C39.7744 48.9223 45.8767 51.1612 50.7938 55.1756C46.0968 58.9789 40.2093 61.0492 34.0856 61.051M49.0352 75.5877C49.1248 69.6045 51.1814 63.8706 54.888 59.2697C58.9095 64.1891 61.1526 70.2971 61.2406 76.5675C61.3285 82.8379 59.2559 88.8888 55.3708 93.7038C51.1517 88.5581 48.8896 82.1132 48.9998 75.5523" fill="white"/>
</svg>
