<svg width="28" height="27" viewBox="0 0 28 27" fill="none" xmlns="http://www.w3.org/2000/svg">
<path fill-rule="evenodd" clip-rule="evenodd" d="M1.96824 1.89795C0 3.7959 0 6.85058 0 12.96V14.04C0 20.1494 0 23.2041 1.96824 25.1021C3.93648 27 7.1043 27 13.44 27H14.56C20.8957 27 24.0635 27 26.0318 25.1021C28 23.2041 28 20.1494 28 14.04V12.96C28 6.85058 28 3.7959 26.0318 1.89795C24.0635 0 20.8957 0 14.56 0H13.44C7.1043 0 3.93648 0 1.96824 1.89795ZM4.72507 8.21256C4.87674 15.2326 8.51672 19.4513 14.8984 19.4513H15.2601V15.4351C17.6051 15.6601 19.3783 17.3138 20.09 19.4513H23.4034C22.4934 16.2563 20.1016 14.4901 18.6083 13.8151C20.1016 12.9826 22.2016 10.9576 22.7033 8.21256H19.6932C19.0399 10.4401 17.1034 12.4651 15.2601 12.6563V8.21256H12.25V15.9976C10.3833 15.5476 8.02672 13.3651 7.92172 8.21256H4.72507Z" fill="white"/>
</svg>
