<svg width="28" height="27" viewBox="0 0 28 27" fill="none" xmlns="http://www.w3.org/2000/svg">
<path d="M0 27L1.97756 20.0666C0.757263 18.0371 0.116051 15.7365 0.117223 13.3774C0.12074 6.00187 6.37461 0 14.0586 0C17.7875 0.001125 21.2878 1.395 23.9206 3.924C26.5523 6.453 28.0012 9.8145 28 13.3898C27.9965 20.7664 21.7426 26.7683 14.0586 26.7683C11.7259 26.7671 9.42711 26.2058 7.39094 25.1393L0 27ZM7.73323 22.7171C9.6979 23.8365 11.5735 24.507 14.0539 24.5081C20.4403 24.5081 25.6426 19.5199 25.6462 13.3875C25.6485 7.24275 20.4707 2.26125 14.0633 2.259C7.67228 2.259 2.47342 7.24725 2.47107 13.3785C2.4699 15.8816 3.2342 17.7559 4.51779 19.7167L3.34673 23.8207L7.73323 22.7171ZM21.0815 16.5701C20.9947 16.4306 20.7626 16.3474 20.4133 16.1798C20.0651 16.0121 18.3525 15.2032 18.0325 15.0919C17.7136 14.9805 17.4815 14.9243 17.2483 15.2595C17.0162 15.5936 16.348 16.3474 16.1452 16.5701C15.9424 16.7929 15.7384 16.821 15.3903 16.6534C15.0421 16.4858 13.9191 16.1336 12.5886 14.994C11.5535 14.1075 10.8537 13.0129 10.6509 12.6776C10.4481 12.3435 10.6298 12.1624 10.8033 11.9959C10.9604 11.8463 11.1515 11.6055 11.3261 11.4097C11.5031 11.2163 11.5606 11.0768 11.6778 10.8529C11.7939 10.6301 11.7364 10.4344 11.6485 10.2668C11.5606 10.1003 10.8643 8.45438 10.5747 7.785C10.291 7.13363 10.0039 7.22137 9.7905 7.21125L9.12233 7.2C8.89023 7.2 8.51277 7.28325 8.19392 7.6185C7.87507 7.95375 6.9748 8.7615 6.9748 10.4074C6.9748 12.0533 8.22323 13.6429 8.39672 13.8656C8.57138 14.0884 10.8525 17.4656 14.347 18.9135C15.1781 19.2577 15.8275 19.4636 16.3327 19.6178C17.1674 19.872 17.927 19.836 18.5272 19.7505C19.1965 19.6549 20.588 18.9416 20.8787 18.1609C21.1694 17.379 21.1694 16.7096 21.0815 16.5701Z" fill="white"/>
</svg>
