<svg width="29" height="19" viewBox="0 0 29 19" fill="none" xmlns="http://www.w3.org/2000/svg">
<path d="M28.7111 4.09969C28.7111 4.09969 28.4279 2.23716 27.5557 1.41933C26.4512 0.34296 25.2164 0.337684 24.65 0.274368C20.5945 -1.50956e-07 14.5057 0 14.5057 0H14.4943C14.4943 0 8.40547 -1.50956e-07 4.35 0.274368C3.78359 0.337684 2.54883 0.34296 1.44434 1.41933C0.57207 2.23716 0.294531 4.09969 0.294531 4.09969C0.294531 4.09969 0 6.28936 0 8.47376V10.521C0 12.7054 0.288867 14.895 0.288867 14.895C0.288867 14.895 0.57207 16.7576 1.43867 17.5754C2.54316 18.6518 3.99316 18.6148 4.63887 18.7309C6.96113 18.9367 14.5 19 14.5 19C14.5 19 20.5945 18.9894 24.65 18.7204C25.2164 18.657 26.4512 18.6518 27.5557 17.5754C28.4279 16.7576 28.7111 14.895 28.7111 14.895C28.7111 14.895 29 12.7106 29 10.521V8.47376C29 6.28936 28.7111 4.09969 28.7111 4.09969ZM11.5037 13.0061V5.4135L19.3371 9.22299L11.5037 13.0061Z" fill="white"/>
</svg>
